<svg xmlns="http://www.w3.org/2000/svg" width="236" height="77" viewBox="0 0 236 77">
  <g id="Group_162" data-name="Group 162" transform="translate(-9355 -4141)">
    <g id="Group_161" data-name="Group 161" transform="translate(9317 4120)">
      <text id="Faartoft" transform="translate(76 21)" fill="#fff" font-size="50" font-family="FuturaPT-Bold, Futura PT" font-weight="700"><tspan x="0" y="49">Faartoft</tspan></text>
      <circle id="Ellipse_53" data-name="Ellipse 53" cx="4.5" cy="4.5" r="4.5" transform="translate(73 89)" fill="#fff"/>
      <circle id="Ellipse_58" data-name="Ellipse 58" cx="4.5" cy="4.5" r="4.5" transform="translate(93 85)" fill="#fff"/>
      <circle id="Ellipse_59" data-name="Ellipse 59" cx="4.5" cy="4.5" r="4.5" transform="translate(102 73)" fill="#fff"/>
      <circle id="Ellipse_54" data-name="Ellipse 54" cx="4.5" cy="4.5" r="4.5" transform="translate(73 21)" fill="#fff"/>
      <circle id="Ellipse_62" data-name="Ellipse 62" cx="4.5" cy="4.5" r="4.5" transform="translate(91 24)" fill="#fff"/>
      <circle id="Ellipse_63" data-name="Ellipse 63" cx="4.5" cy="4.5" r="4.5" transform="translate(102 35)" fill="#fff"/>
      <circle id="Ellipse_55" data-name="Ellipse 55" cx="4.5" cy="4.5" r="4.5" transform="translate(38 55)" fill="#fff"/>
      <circle id="Ellipse_60" data-name="Ellipse 60" cx="4.5" cy="4.5" r="4.5" transform="translate(43 35)" fill="#fff"/>
      <circle id="Ellipse_61" data-name="Ellipse 61" cx="4.5" cy="4.5" r="4.5" transform="translate(55 26)" fill="#fff"/>
      <circle id="Ellipse_56" data-name="Ellipse 56" cx="4.5" cy="4.5" r="4.5" transform="translate(43 73)" fill="#fff"/>
      <circle id="Ellipse_57" data-name="Ellipse 57" cx="4.5" cy="4.5" r="4.5" transform="translate(55 85)" fill="#fff"/>
    </g>
  </g>
</svg>
