<svg xmlns="http://www.w3.org/2000/svg" width="240" height="121" viewBox="0 0 240 121">
  <g id="Group_167" data-name="Group 167" transform="translate(-8957 -3997)">
    <g id="Group_166" data-name="Group 166">
      <g id="Group_165" data-name="Group 165">
        <g id="Group_164" data-name="Group 164" transform="translate(8957 3997)">
          <g id="Group_163" data-name="Group 163">
            <ellipse id="Ellipse_109" data-name="Ellipse 109" cx="57" cy="57.5" rx="57" ry="57.5" transform="translate(61 4)" fill="none"/>
            <text id="faartoft" transform="translate(0 9)" fill="#fff" font-size="70" font-family="FuturaPT-Bold, Futura PT" font-weight="700"><tspan x="0" y="69">faartof</tspan></text>
            <circle id="Ellipse_53" data-name="Ellipse 53" cx="6" cy="6" r="6" transform="translate(113 109)" fill="#fff"/>
            <circle id="Ellipse_58" data-name="Ellipse 58" cx="6" cy="6" r="6" transform="translate(131 107)" fill="#fff"/>
            <circle id="Ellipse_54" data-name="Ellipse 54" cx="6" cy="6" r="6" transform="translate(113)" fill="#fff"/>
            <ellipse id="Ellipse_62" data-name="Ellipse 62" cx="6" cy="5.5" rx="6" ry="5.5" transform="translate(131 4)" fill="#fff"/>
            <ellipse id="Ellipse_60" data-name="Ellipse 60" cx="5.5" cy="6" rx="5.5" ry="6" transform="translate(79 10)" fill="#fff"/>
            <ellipse id="Ellipse_113" data-name="Ellipse 113" cx="6" cy="5.5" rx="6" ry="5.5" transform="translate(64 22)" fill="#fff"/>
            <circle id="Ellipse_111" data-name="Ellipse 111" cx="6" cy="6" r="6" transform="translate(149 10)" fill="#fff"/>
            <ellipse id="Ellipse_115" data-name="Ellipse 115" cx="5.5" cy="6" rx="5.5" ry="6" transform="translate(164 28)" fill="#fff"/>
            <ellipse id="Ellipse_61" data-name="Ellipse 61" cx="6" cy="5.5" rx="6" ry="5.5" transform="translate(95 4)" fill="#fff"/>
            <circle id="Ellipse_56" data-name="Ellipse 56" cx="5.5" cy="5.5" r="5.5" transform="translate(79 98)" fill="#fff"/>
            <ellipse id="Ellipse_112" data-name="Ellipse 112" cx="6" cy="5.5" rx="6" ry="5.5" transform="translate(64 89)" fill="#fff"/>
            <ellipse id="Ellipse_110" data-name="Ellipse 110" cx="6" cy="5.5" rx="6" ry="5.5" transform="translate(149 98)" fill="#fff"/>
            <circle id="Ellipse_114" data-name="Ellipse 114" cx="5.5" cy="5.5" r="5.5" transform="translate(164 84)" fill="#fff"/>
            <circle id="Ellipse_57" data-name="Ellipse 57" cx="6" cy="6" r="6" transform="translate(95 107)" fill="#fff"/>
          </g>
        </g>
      </g>
    </g>
  </g>
</svg>
