<svg xmlns="http://www.w3.org/2000/svg" width="30.998" height="31" viewBox="0 0 30.998 31">
  <path id="Icon_simple-filezilla" data-name="Icon simple-filezilla" d="M30.993,2.4V1.034a1.046,1.046,0,0,1-.733-.3,1.046,1.046,0,0,1-.3-.732h-1.37A1.041,1.041,0,0,1,27.5.985,1.042,1.042,0,0,1,26.511,0h-1.37a1.039,1.039,0,0,1-1.1.975A1.044,1.044,0,0,1,23.064,0H21.7a1.043,1.043,0,0,1-1.091.988A1.044,1.044,0,0,1,19.618,0H18.249a1.041,1.041,0,0,1-1.09.988A1.044,1.044,0,0,1,16.171,0H14.8a1.039,1.039,0,0,1-1.1.975A1.044,1.044,0,0,1,12.728,0H11.359a1.026,1.026,0,0,1-1.067,1,1.038,1.038,0,0,1-1-1H7.921a1.041,1.041,0,0,1-1.09.988A1.042,1.042,0,0,1,5.845,0H4.476A1.037,1.037,0,0,1,3.4,1a1.037,1.037,0,0,1-1-1H1.032a1.042,1.042,0,0,1-.3.732,1.046,1.046,0,0,1-.733.3V2.4a1.038,1.038,0,0,1,1,1.074,1.034,1.034,0,0,1-1,1v1.37a1.037,1.037,0,0,1,1,1.074,1.035,1.035,0,0,1-1,1V9.289a1.039,1.039,0,0,1,1.038,1.039A1.038,1.038,0,0,1,0,11.367v1.367a1.037,1.037,0,0,1,1.038,1.038A1.037,1.037,0,0,1,0,14.811v1.369a1.038,1.038,0,0,1,1,1.074,1.037,1.037,0,0,1-1,1v1.37a1.037,1.037,0,0,1,1.038,1.037A1.038,1.038,0,0,1,0,21.7v1.37a1.035,1.035,0,0,1,1,1.072,1.035,1.035,0,0,1-1,1v1.37a1.038,1.038,0,0,1,1.038,1.039A1.037,1.037,0,0,1,0,28.59v1.37A1.04,1.04,0,0,1,1.032,31H2.4a1.04,1.04,0,0,1,2.076,0h1.37a1.039,1.039,0,0,1,2.076,0H9.291a1.04,1.04,0,0,1,2.078,0h1.369a1.038,1.038,0,0,1,2.075,0h1.37a1.039,1.039,0,0,1,2.076,0h1.367a1.041,1.041,0,0,1,2.079,0h1.367a1.041,1.041,0,0,1,2.079,0h1.369a1.038,1.038,0,0,1,2.074,0h1.362a1.034,1.034,0,0,1,1.036-1.036v-1.37a1.039,1.039,0,0,1,0-2.074v-1.37a1.039,1.039,0,0,1,0-2.076V21.7a1.04,1.04,0,0,1,0-2.076v-1.37a1.039,1.039,0,0,1,0-2.076V14.812a1.04,1.04,0,0,1,0-2.076V11.367a1.039,1.039,0,0,1,0-2.076V7.922a1.039,1.039,0,0,1,0-2.075V4.478a1.039,1.039,0,0,1,0-2.076Zm-5.253,12.7-8.269,8.04a14.445,14.445,0,0,0,2.249.291,15.751,15.751,0,0,0,5.536-1.183L24.5,25.8a9.787,9.787,0,0,1-4.782,1.125c-1.414,0-2.769-.461-4.151-.461a5.084,5.084,0,0,0-2.594.517l-1.5-2.651,8.532-8.446H10.189L8.315,24.672H4.222L8.49,4.554H22.035L21.17,8.616H11.745l-.807,3.777H26.4l-.664,2.712Z" transform="translate(0.005 0.004)" fill="#000018"/>
</svg>
