<svg xmlns="http://www.w3.org/2000/svg" width="208.975" height="167.154" viewBox="0 0 208.975 167.154">
  <path id="Icon_awesome-code" data-name="Icon awesome-code" d="M91.067,166.994,71.15,161.215a3.924,3.924,0,0,1-2.677-4.865L113.04,2.831A3.924,3.924,0,0,1,117.9.154l19.916,5.779A3.924,3.924,0,0,1,140.5,10.8L95.931,164.317a3.912,3.912,0,0,1-4.865,2.677ZM53.846,130.361l14.2-15.149a3.918,3.918,0,0,0-.261-5.616L38.207,83.574,67.787,57.552a3.89,3.89,0,0,0,.261-5.616l-14.2-15.149a3.922,3.922,0,0,0-5.55-.163L1.247,80.7a3.892,3.892,0,0,0,0,5.714L48.3,130.524a3.893,3.893,0,0,0,5.55-.163Zm106.83.2,47.048-44.11a3.892,3.892,0,0,0,0-5.714L160.676,36.591a3.954,3.954,0,0,0-5.55.163L140.923,51.9a3.918,3.918,0,0,0,.261,5.616l29.581,26.055L141.184,109.6a3.89,3.89,0,0,0-.261,5.616l14.2,15.149A3.923,3.923,0,0,0,160.676,130.557Z" transform="translate(0.002 -0.003)" fill="#fff"/>
</svg>
