<svg xmlns="http://www.w3.org/2000/svg" width="90.991" height="88.718" viewBox="0 0 90.991 88.718">
  <path id="Icon_awesome-github" data-name="Icon awesome-github" d="M30.434,72c0,.367-.422.66-.954.66-.605.055-1.027-.238-1.027-.66,0-.367.422-.66.954-.66C29.957,71.282,30.434,71.576,30.434,72Zm-5.705-.826c-.128.367.238.789.789.9a.861.861,0,0,0,1.137-.367c.11-.367-.238-.789-.789-.954A.942.942,0,0,0,24.729,71.172Zm8.108-.312c-.532.128-.9.477-.844.9.055.367.532.605,1.082.477.532-.128.9-.477.844-.844C33.865,71.044,33.37,70.806,32.838,70.861ZM44.909.563C19.464.563,0,19.88,0,45.324A45.993,45.993,0,0,0,31.095,89.206c2.348.422,3.174-1.027,3.174-2.22,0-1.137-.055-7.411-.055-11.264,0,0-12.841,2.752-15.538-5.467,0,0-2.091-5.338-5.1-6.714,0,0-4.2-2.88.294-2.825a9.684,9.684,0,0,1,7.081,4.733c4.018,7.081,10.75,5.045,13.374,3.834A10.2,10.2,0,0,1,37.259,63.1c-10.255-1.137-20.6-2.623-20.6-20.271,0-5.045,1.394-7.576,4.329-10.805a17.333,17.333,0,0,1,.477-12.456c3.834-1.192,12.658,4.953,12.658,4.953a43.338,43.338,0,0,1,23.041,0s8.824-6.164,12.658-4.953A17.325,17.325,0,0,1,70.3,32.024c2.935,3.247,4.733,5.779,4.733,10.805,0,17.7-10.805,19.115-21.06,20.271,1.688,1.449,3.119,4.2,3.119,8.512,0,6.182-.055,13.832-.055,15.336,0,1.192.844,2.642,3.174,2.22,18.345-6.091,30.783-23.5,30.783-43.845C90.991,19.88,70.353.563,44.909.563ZM17.831,63.834c-.238.183-.183.605.128.954.294.294.715.422.954.183.238-.183.183-.605-.128-.954C18.492,63.724,18.07,63.6,17.831,63.834ZM15.85,62.348c-.128.238.055.532.422.715a.546.546,0,0,0,.789-.128c.128-.238-.055-.532-.422-.715C16.272,62.11,15.978,62.165,15.85,62.348Zm5.944,6.531c-.294.238-.183.789.238,1.137.422.422.954.477,1.192.183.238-.238.128-.789-.238-1.137C22.583,68.641,22.032,68.586,21.794,68.879Zm-2.091-2.7c-.294.183-.294.66,0,1.082s.789.605,1.027.422a.837.837,0,0,0,0-1.137C20.473,66.128,20,65.944,19.7,66.183Z" transform="translate(0 -0.563)" fill="#fff"/>
</svg>
