<svg xmlns="http://www.w3.org/2000/svg" width="185.727" height="167.154" viewBox="0 0 185.727 167.154">
  <path id="Icon_material-developer-board" data-name="Icon material-developer-board" d="M188.727,60.218V41.645H170.154V23.073A18.627,18.627,0,0,0,151.582,4.5H21.573A18.627,18.627,0,0,0,3,23.073V153.081a18.627,18.627,0,0,0,18.573,18.573H151.582a18.627,18.627,0,0,0,18.573-18.573V134.509h18.573V115.936H170.154V97.363h18.573V78.791H170.154V60.218Zm-37.145,92.863H21.573V23.073H151.582ZM40.145,97.363H86.577v37.145H40.145ZM95.863,41.645h37.145V69.5H95.863Zm-55.718,0H86.577V88.077H40.145ZM95.863,78.791h37.145v55.718H95.863Z" transform="translate(-3 -4.5)" fill="#fff"/>
</svg>
