<svg xmlns="http://www.w3.org/2000/svg" width="167.147" height="167.154" viewBox="0 0 167.147 167.154">
  <path id="Icon_awesome-tools" data-name="Icon awesome-tools" d="M163.592,129.173,125.366,90.946a24.238,24.238,0,0,0-27.878-4.538l-34.8-34.8V31.338L20.905,0,.013,20.892,31.351,62.677H51.623l34.8,34.8a24.291,24.291,0,0,0,4.538,27.878l38.226,38.226a12.137,12.137,0,0,0,17.2,0l17.2-17.2a12.2,12.2,0,0,0,0-17.2Zm-55.3-55.724a34.346,34.346,0,0,1,24.45,10.12l6.333,6.333a46.208,46.208,0,0,0,14.3-9.63,46.946,46.946,0,0,0,12.372-44.625,3.907,3.907,0,0,0-6.561-1.8L134.9,58.139,112.733,54.45l-3.689-22.165L133.331,8A3.941,3.941,0,0,0,131.471,1.4,47.024,47.024,0,0,0,86.879,13.776,46.261,46.261,0,0,0,73.429,47.6l26.8,26.8A35.562,35.562,0,0,1,108.293,73.449ZM74.376,100.217,55.867,81.708,6.117,131.49A20.89,20.89,0,0,0,35.66,161.033l40.348-40.348a35.055,35.055,0,0,1-1.632-20.468ZM20.905,154.08a7.835,7.835,0,1,1,7.835-7.835A7.858,7.858,0,0,1,20.905,154.08Z" transform="translate(0.004)" fill="#fff"/>
</svg>
