<svg xmlns="http://www.w3.org/2000/svg" width="31.5" height="36" viewBox="0 0 31.5 36">
  <path id="Icon_awesome-atom" data-name="Icon awesome-atom" d="M29.041,18c2.822-3.859,2.919-6.934,1.768-9-.767-1.372-2.85-3.567-8.179-2.945C21.119,2.453,18.818,0,15.75,0S10.381,2.453,8.871,6.055C3.546,5.438,1.458,7.628.691,9c-1.152,2.067-1.055,5.139,1.768,9C-.363,21.859-.46,24.934.691,27c2.054,3.68,7.149,3.064,8.179,2.945C10.38,33.546,12.682,36,15.75,36s5.37-2.454,6.879-6.055c1.029.12,6.125.735,8.179-2.945C31.961,24.933,31.864,21.861,29.041,18ZM4.456,24.75c-.283-.507-.013-1.744,1.051-3.4.489.459,1,.906,1.538,1.349.12.964.281,1.9.475,2.818-1.727.063-2.8-.307-3.064-.771ZM7.045,13.3c-.539.442-1.048.889-1.538,1.349-1.064-1.652-1.334-2.889-1.051-3.4.24-.432,1.152-.806,2.666-.806.12,0,.272.021.4.026q-.3,1.4-.477,2.828Zm8.7-8.8c.666,0,1.561.951,2.381,2.62-.787.26-1.578.563-2.381.9-.8-.342-1.594-.644-2.381-.9C14.189,5.451,15.084,4.5,15.75,4.5Zm0,27c-.666,0-1.561-.951-2.381-2.62.787-.26,1.578-.562,2.381-.9.8.342,1.594.644,2.381.9C17.311,30.549,16.416,31.5,15.75,31.5Zm4.395-11.062a30.064,30.064,0,0,1-4.395,2.635,30.1,30.1,0,0,1-4.395-2.635,28.358,28.358,0,0,1,0-4.875,30.171,30.171,0,0,1,4.395-2.635,30.112,30.112,0,0,1,4.395,2.635A28.429,28.429,0,0,1,20.145,20.438Zm6.9,4.312c-.258.465-1.336.831-3.064.77.194-.914.355-1.854.475-2.817.539-.442,1.048-.889,1.538-1.349,1.064,1.652,1.334,2.888,1.051,3.4Zm-1.051-10.1c-.489-.459-1-.906-1.538-1.349q-.178-1.424-.477-2.828c.128,0,.279-.026.4-.026,1.513,0,2.426.375,2.666.806.283.508.013,1.744-1.051,3.4ZM15.75,15.75A2.25,2.25,0,1,0,18,18,2.25,2.25,0,0,0,15.75,15.75Z" transform="translate(0)" fill="#fff"/>
</svg>
