<svg xmlns="http://www.w3.org/2000/svg" width="31.5" height="31.5" viewBox="0 0 31.5 31.5">
  <path id="Icon_awesome-git-alt" data-name="Icon awesome-git-alt" d="M30.906,16.6,17.156,2.844a2.03,2.03,0,0,0-2.869,0L11.428,5.7,15.05,9.323A2.41,2.41,0,0,1,18.1,12.395l3.492,3.492a2.413,2.413,0,1,1-1.444,1.361L16.89,13.992V22.56a2.412,2.412,0,1,1-1.984-.07V13.841A2.412,2.412,0,0,1,13.6,10.677L10.024,7.1.594,16.533a2.029,2.029,0,0,0,0,2.869L14.348,33.156a2.029,2.029,0,0,0,2.869,0L30.906,19.467a2.029,2.029,0,0,0,0-2.869Z" transform="translate(0 -2.25)" fill="#fff"/>
</svg>
