<svg xmlns="http://www.w3.org/2000/svg" width="40.5" height="35.343" viewBox="0 0 40.5 35.343">
  <path id="Icon_awesome-gitkraken" data-name="Icon awesome-gitkraken" d="M39.776,8.3a.81.81,0,0,0-1.519.563,18.644,18.644,0,0,1-15,25.031V25.2a11.419,11.419,0,0,0,1.617-.436v7.312A17.139,17.139,0,0,0,29.1.429a.809.809,0,0,0-.788,1.413,15.525,15.525,0,0,1-1.821,28.027V23.386a2.49,2.49,0,0,0,1.751-2.355,2.455,2.455,0,0,0-1.216-2.145c.584-5.59,3.129-4.12,3.129-5.9V11.953c0-2.672-6.18-11.377-9.07-11.58a3.389,3.389,0,0,0-.534,0c-2.9.211-9.077,8.909-9.077,11.58v1.041c0,1.779,2.552.3,3.129,5.9a2.44,2.44,0,0,0-1.216,2.145,2.484,2.484,0,0,0,1.744,2.355v6.483A15.525,15.525,0,0,1,13.31,1.849.809.809,0,0,0,12.523.436a17.139,17.139,0,0,0,4.226,31.648V24.771a14.055,14.055,0,0,0,1.617.436v8.7a18.644,18.644,0,0,1-15-25.031.81.81,0,0,0-1.519-.562A20.269,20.269,0,0,0,19.99,35.67V25.411a14.234,14.234,0,0,0,1.645,0V35.662A20.269,20.269,0,0,0,39.776,8.3ZM25.727,19.371a1.666,1.666,0,1,1-1.666,1.666A1.665,1.665,0,0,1,25.727,19.371ZM15.9,22.7a1.666,1.666,0,1,1,1.666-1.666A1.665,1.665,0,0,1,15.9,22.7Z" transform="translate(-0.563 -0.327)" fill="#fff"/>
</svg>
