<svg xmlns="http://www.w3.org/2000/svg" width="31.3" height="31.3" viewBox="0 0 31.3 31.3">
  <path id="Icon_simple-javascript" data-name="Icon simple-javascript" d="M0,0H31.3V31.3H0ZM28.736,23.835c-.228-1.428-1.158-2.628-3.916-3.747-.96-.45-2.027-.763-2.344-1.487a1.54,1.54,0,0,1-.06-.919,1.5,1.5,0,0,1,1.976-.861,2.122,2.122,0,0,1,1.273,1.174c1.349-.882,1.349-.882,2.289-1.467a5.383,5.383,0,0,0-.764-1.017,4.38,4.38,0,0,0-3.7-1.349l-.919.116a4.2,4.2,0,0,0-2.23,1.311,4.092,4.092,0,0,0,.742,5.831c1.78,1.33,4.383,1.622,4.716,2.876.313,1.526-1.135,2.015-2.564,1.839a3.434,3.434,0,0,1-2.289-1.742l-2.387,1.371a5.274,5.274,0,0,0,1.056,1.446c2.269,2.29,7.942,2.173,8.961-1.309a4.414,4.414,0,0,0,.1-2.152l.06.087ZM17.021,14.386H14.089c0,2.527-.012,5.039-.012,7.571a12.348,12.348,0,0,1-.18,3.536c-.43.9-1.539.784-2.042.626A2.516,2.516,0,0,1,10.772,25a1.119,1.119,0,0,0-.166-.256l-2.38,1.467a4.613,4.613,0,0,0,1.727,1.978,5.74,5.74,0,0,0,4.182.528,3.663,3.663,0,0,0,2.362-1.84c.665-1.213.524-2.7.518-4.364.016-2.679,0-5.359,0-8.058l.005-.073Z" fill="#fff"/>
</svg>
