<svg xmlns="http://www.w3.org/2000/svg" width="35.955" height="34.631" viewBox="0 0 35.955 34.631">
  <path id="Icon_simple-jquery" data-name="Icon simple-jquery" d="M2.3,8.811c-3.184,4.575-2.79,10.526-.355,15.384.056.118.117.231.177.344a2.419,2.419,0,0,0,.115.223,1.266,1.266,0,0,0,.07.125c.039.078.081.153.122.228l.236.4c.043.073.086.146.135.219.082.141.18.281.266.421.039.059.075.117.118.176q.218.343.465.666c.117.16.234.316.36.472.041.057.086.114.128.171l.332.4c.041.046.081.1.124.149.147.177.3.35.459.524,0,0,0,.006.008.01a4.7,4.7,0,0,0,.636.66c.12.123.24.246.367.366l.152.146c.167.156.333.312.509.462,0,0,0,0,.008,0l.086.075c.153.133.307.267.465.39l.188.157c.128.1.26.2.39.3l.2.156c.139.1.288.208.431.31.052.038.1.075.159.11l.043.035.422.278.18.12c.22.141.439.275.657.407.063.032.126.066.184.1.162.093.33.188.493.275.09.051.183.095.276.141.113.063.229.125.349.188a.486.486,0,0,1,.084.034c.049.023.1.047.144.071.18.09.368.175.563.261a1.222,1.222,0,0,1,.114.051c.216.095.432.185.656.273.051.015.1.041.158.06.2.076.411.154.616.228l.075.027c.229.078.456.153.689.225.054.015.109.035.167.049a7.294,7.294,0,0,0,.71.2c15.39,2.805,19.863-9.253,19.863-9.253-3.757,4.893-10.425,6.183-16.74,4.747-.234-.054-.468-.129-.7-.2q-.428-.126-.85-.271l-.093-.036c-.2-.069-.4-.146-.6-.222q-.081-.034-.165-.062c-.22-.088-.435-.18-.648-.274-.047-.015-.085-.036-.132-.054q-.272-.125-.541-.255c-.056-.024-.105-.049-.159-.078-.141-.066-.282-.141-.42-.213q-.142-.068-.281-.144c-.169-.09-.339-.187-.508-.281-.051-.036-.109-.066-.168-.1q-.332-.2-.657-.4-.09-.056-.177-.118-.239-.147-.468-.309c-.053-.035-.1-.072-.155-.11q-.223-.155-.441-.318c-.063-.051-.13-.1-.2-.15-.132-.1-.266-.2-.4-.312l-.177-.141q-.255-.206-.5-.421a.387.387,0,0,0-.056-.045l-.521-.474-.15-.141c-.123-.125-.249-.244-.375-.368l-.146-.15q-.238-.237-.464-.485l-.022-.024c-.159-.174-.313-.351-.47-.531-.041-.046-.078-.1-.12-.146l-.339-.416q-.259-.333-.51-.672c-3.5-4.782-4.77-11.382-1.967-16.8m7.406-.708A11.045,11.045,0,0,0,11.8,16.206a13.65,13.65,0,0,0,1.016,1.7A7.955,7.955,0,0,0,14,19.383c.16.183.335.36.516.538l.135.135q.256.248.525.487l.023.02q.3.265.621.513c.051.035.094.075.144.11.21.162.421.318.64.472l.022.014c.093.067.192.129.3.195.042.027.09.063.135.09.159.1.315.2.476.3.025.01.048.024.072.035.135.083.282.162.423.236.049.03.1.052.149.081.1.049.2.1.3.153l.048.021c.2.1.41.192.612.285.051.02.094.036.138.057.167.072.336.141.5.205.075.025.146.056.216.078.153.057.313.11.465.162l.21.067a5.077,5.077,0,0,0,.672.194c11.88,1.969,14.631-7.181,14.631-7.181C33.495,20.209,28.7,21.907,23.6,20.581q-.339-.088-.672-.195c-.072-.02-.135-.042-.2-.063-.156-.054-.316-.107-.468-.163l-.216-.081c-.168-.067-.339-.131-.5-.2-.051-.022-.1-.038-.136-.06-.21-.094-.421-.187-.625-.288l-.309-.16-.178-.09c-.138-.072-.265-.147-.4-.225A.93.93,0,0,1,19.793,19c-.159-.1-.324-.2-.476-.3-.051-.028-.1-.063-.146-.093l-.312-.2c-.216-.15-.427-.312-.64-.468-.048-.044-.094-.08-.141-.118a14.262,14.262,0,0,1-4.857-6.912A10.741,10.741,0,0,1,14.06,2.3m6.43-.22a6.925,6.925,0,0,0-.555,6.683,9.43,9.43,0,0,0,5.406,5.047c.1.038.192.069.292.1l.132.04c.138.043.278.094.42.126,6.564,1.266,8.34-3.371,8.818-4.052-1.563,2.244-4.184,2.783-7.4,2a7.266,7.266,0,0,1-.774-.24,9.516,9.516,0,0,1-.925-.381,9.782,9.782,0,0,1-1.62-.99C21.406,8.235,19.623,4.071,21.5.679" transform="translate(-0.016 -0.68)" fill="#fff"/>
</svg>
