<svg xmlns="http://www.w3.org/2000/svg" width="35.91" height="36.002" viewBox="0 0 35.91 36.002">
  <path id="Icon_simple-json" data-name="Icon simple-json" d="M18.065,35.952a16.686,16.686,0,0,0,2.139-.141,17.706,17.706,0,0,0,4.719-1.294A18.606,18.606,0,0,0,30.612,30.7a17.967,17.967,0,0,0,3.66-5.141,17.692,17.692,0,0,0,1.53-5.214,18.7,18.7,0,0,0-.068-5.248,17.941,17.941,0,0,0-1.189-4.182,16.8,16.8,0,0,0-1.281-2.425A18.36,18.36,0,0,0,26.049,2.04a19.252,19.252,0,0,0-3.258-1.3h-.007c.178.095.36.2.517.3.18.111.358.219.527.337a13.4,13.4,0,0,1,2.338,2,14.755,14.755,0,0,1,3.327,6.062,20.739,20.739,0,0,1,.743,4.526,18.438,18.438,0,0,1-.07,3.344,13.135,13.135,0,0,1-1.842,5.394,11.212,11.212,0,0,1-2.854,3.126,8.218,8.218,0,0,1-6.654,1.671,5.874,5.874,0,0,1-1.122-.387,7.038,7.038,0,0,1-1.169-.674,9.119,9.119,0,0,1-1.866-1.659,9.761,9.761,0,0,1-1.573-2.621,11.05,11.05,0,0,1-.741-3.81,10.673,10.673,0,0,1,1.281-5.505A9.647,9.647,0,0,1,16.119,9.96a10.4,10.4,0,0,1,1.056-.719l.024-.01a7.682,7.682,0,0,0-2.161-.18,7.444,7.444,0,0,0-1.842.358,8.667,8.667,0,0,0-1.528.675,9.22,9.22,0,0,0-1.1.743c-.316.27-.63.538-.922.832a11.768,11.768,0,0,0-3.033,6.384,20.87,20.87,0,0,0-.136,4.427,18.852,18.852,0,0,0,1.418,6.091,12.778,12.778,0,0,0,2.022,3.26,12.211,12.211,0,0,0,4.7,3.347,11.9,11.9,0,0,0,3.17.81A1.572,1.572,0,0,0,18.1,36l-.031-.048Zm-4.4-.6a6.152,6.152,0,0,1-.675-.342c-.224-.125-.45-.252-.674-.389a12.75,12.75,0,0,1-2.384-1.912,14.278,14.278,0,0,1-3.371-6.122,22.778,22.778,0,0,1-.742-4.758,18.212,18.212,0,0,1,.069-3.123,13.566,13.566,0,0,1,1.686-5.37,10.333,10.333,0,0,1,2.674-3.08A9.345,9.345,0,0,1,12.7,8.91a8.045,8.045,0,0,1,3.844-.4,7.59,7.59,0,0,1,1.438.337c.044,0,.044,0,.067.045.022.023.067.023.09.045.067.024.156.068.247.111a10.484,10.484,0,0,1,1.056.63,9.441,9.441,0,0,1,3.146,3.753,11.025,11.025,0,0,1,.947,4.407,10.719,10.719,0,0,1-.968,4.719A9.632,9.632,0,0,1,18.609,26.8c.135.045.27.067.406.112a5.3,5.3,0,0,0,1.032.111,8.491,8.491,0,0,0,5.91-2.471,7.488,7.488,0,0,0,.81-.878,11.663,11.663,0,0,0,.921-1.235,12.849,12.849,0,0,0,.921-1.731,12.169,12.169,0,0,0,.764-2.5,17.882,17.882,0,0,0,.223-4.539,16.9,16.9,0,0,0-2.763-8.586A13.582,13.582,0,0,0,26,4.011,14.8,14.8,0,0,0,24.406,2.46a12.716,12.716,0,0,0-2.045-1.372,14.891,14.891,0,0,0-2.538-.9L19.374.1c-.313-.045-.63-.066-.951-.09A12.679,12.679,0,0,0,16.9.034,17.5,17.5,0,0,0,13.732.54,18.507,18.507,0,0,0,1.95,10,17.814,17.814,0,0,0,.2,20.362a16.324,16.324,0,0,0,1.167,4.465A17.289,17.289,0,0,0,2.605,27.3,18.212,18.212,0,0,0,9.37,33.66a18.646,18.646,0,0,0,3.236,1.417c.339.111.675.223,1.033.313l.024-.036Z" transform="translate(-0.045 0.002)" fill="#fff"/>
</svg>
