<svg xmlns="http://www.w3.org/2000/svg" width="29.25" height="29.25" viewBox="0 0 29.25 29.25">
  <g id="Icon_ionic-md-speedometer" data-name="Icon ionic-md-speedometer" transform="translate(-3.375 -3.375)">
    <path id="Path_94" data-name="Path 94" d="M9,29.25H27v3.375H9Z" fill="#fff"/>
    <path id="Path_95" data-name="Path 95" d="M18,20.25a2.25,2.25,0,1,0-.619-4.416l-4.69-3.424-.281.246,3.438,4.69a2.195,2.195,0,0,0-.1.654A2.248,2.248,0,0,0,18,20.25Z" fill="#fff"/>
    <path id="Path_96" data-name="Path 96" d="M18,3.375A14.622,14.622,0,0,0,6.476,27H10.61l.281-.281,1.554-1.554-1.61-1.61L9.281,25.1a11.207,11.207,0,0,1-2.475-5.977H9v-2.25H6.806A11.207,11.207,0,0,1,9.281,10.9l1.554,1.547,1.61-1.61L10.9,9.281a11.207,11.207,0,0,1,5.977-2.475V9h2.25V6.806A11.207,11.207,0,0,1,25.1,9.281l-1.547,1.554,1.61,1.61L26.719,10.9a11.207,11.207,0,0,1,2.475,5.977H27v2.25h2.194A11.207,11.207,0,0,1,26.719,25.1l-1.554-1.547-1.61,1.61,1.554,1.554L25.39,27h4.134A14.622,14.622,0,0,0,18,3.375Z" fill="#fff"/>
  </g>
</svg>
