<svg xmlns="http://www.w3.org/2000/svg" width="36" height="18.938" viewBox="0 0 36 18.938">
  <path id="Icon_simple-php" data-name="Icon simple-php" d="M10.515,15.311H9.1l-.773,3.972H9.583a3.042,3.042,0,0,0,1.863-.471,2.5,2.5,0,0,0,.825-1.573,1.72,1.72,0,0,0-.186-1.493,2.117,2.117,0,0,0-1.571-.435ZM18,8.532C8.059,8.532,0,12.771,0,18s8.059,9.469,18,9.469S36,23.229,36,18,27.941,8.532,18,8.532ZM13.11,19.708a3.64,3.64,0,0,1-1.375.826,6.409,6.409,0,0,1-1.927.246H8.035L7.545,23.3H5.478l1.845-9.489H11.3a3.3,3.3,0,0,1,2.616.942,2.95,2.95,0,0,1,.495,2.628,4.135,4.135,0,0,1-1.3,2.325Zm6.036,1.073.815-4.2a1.134,1.134,0,0,0-.1-.976,1.44,1.44,0,0,0-1.031-.261H17.19l-1.056,5.437H14.082l1.845-9.491h2.051l-.49,2.523h1.827a3.558,3.558,0,0,1,2.379.6,1.993,1.993,0,0,1,.395,1.948l-.858,4.416H19.146Zm11.4-3.4a4.173,4.173,0,0,1-.457,1.271,4.284,4.284,0,0,1-.842,1.055,3.66,3.66,0,0,1-1.376.826,6.413,6.413,0,0,1-1.929.246h-1.77l-.49,2.523H21.611l1.845-9.489h3.973a3.3,3.3,0,0,1,2.616.942,2.945,2.945,0,0,1,.5,2.627Zm-3.892-2.073H25.235l-.774,3.972h1.257a3.035,3.035,0,0,0,1.863-.471,2.509,2.509,0,0,0,.826-1.573,1.719,1.719,0,0,0-.187-1.493,2.117,2.117,0,0,0-1.57-.435Z" transform="translate(0 -8.531)" fill="#fff"/>
</svg>
