<svg xmlns="http://www.w3.org/2000/svg" width="34" height="34" viewBox="0 0 34 34">
  <g id="refresh" transform="translate(-0.001)">
    <g id="Group_118" data-name="Group 118" transform="translate(1.876)">
      <g id="Group_117" data-name="Group 117">
        <path id="Path_90" data-name="Path 90" d="M59.155,4.69a1.328,1.328,0,0,0-1.443,1.2l-.176,1.93a16.765,16.765,0,0,0-29.152,1.4,1.328,1.328,0,0,0,2.366,1.208A14.119,14.119,0,0,1,55.312,9.258L53.418,7.905a1.328,1.328,0,0,0-1.544,2.162l5.742,4.1a1.329,1.329,0,0,0,2.095-.96l.645-7.074A1.328,1.328,0,0,0,59.155,4.69Z" transform="translate(-28.237)" fill="#fff"/>
      </g>
    </g>
    <g id="Group_120" data-name="Group 120" transform="translate(0.001 19.584)">
      <g id="Group_119" data-name="Group 119" transform="translate(0)">
        <path id="Path_91" data-name="Path 91" d="M31.4,298.321a1.328,1.328,0,0,0-1.787.579,14.119,14.119,0,0,1-24.564,1.171l1.894,1.352a1.328,1.328,0,1,0,1.544-2.162l-5.742-4.1a1.329,1.329,0,0,0-2.095.96L.007,303.2a1.328,1.328,0,1,0,2.645.241l.176-1.93a16.765,16.765,0,0,0,29.152-1.4A1.328,1.328,0,0,0,31.4,298.321Z" transform="translate(-0.001 -294.913)" fill="#fff"/>
      </g>
    </g>
  </g>
</svg>
