<svg xmlns="http://www.w3.org/2000/svg" width="39.072" height="29.307" viewBox="0 0 39.072 29.307">
  <path id="Icon_awesome-sass" data-name="Icon awesome-sass" d="M18.427,27.281C18.409,27.318,18.391,27.347,18.427,27.281ZM33.637,17.97a8.007,8.007,0,0,0-3.541.824,7.519,7.519,0,0,1-.794-1.838,4.905,4.905,0,0,1-.067-1.545,13.007,13.007,0,0,1,.464-1.661c-.006-.067-.085-.4-.873-.409s-1.465.153-1.544.36a7.5,7.5,0,0,0-.324,1.166,28.288,28.288,0,0,1-2.386,4.6,4.74,4.74,0,0,1-.543-1.343,4.905,4.905,0,0,1-.067-1.545,13.008,13.008,0,0,1,.464-1.661c-.006-.067-.085-.4-.872-.409s-1.465.153-1.545.36-.165.7-.324,1.166-2.069,4.719-2.569,5.824c-.256.562-.476,1.013-.635,1.319-.024.049-.043.079-.055.1.018-.031.031-.061.031-.049-.134.263-.214.409-.214.409v.006c-.1.2-.22.372-.275.372a2.533,2.533,0,0,1,.018-1.215c.287-1.477.965-3.773.958-3.852-.006-.043.128-.44-.446-.653a.719.719,0,0,0-.806.134c-.049,0-.085.122-.085.122s.617-2.589-1.184-2.589c-1.123,0-2.686,1.233-3.454,2.35-.482.263-1.526.83-2.625,1.435l-1.264.7c-.031-.031-.055-.061-.085-.092-2.185-2.332-6.219-3.98-6.048-7.112.061-1.142.458-4.139,7.758-7.778,5.983-2.979,10.766-2.161,11.59-.342,1.184,2.595-2.557,7.424-8.77,8.12a4.677,4.677,0,0,1-3.924-1c-.324-.36-.372-.379-.495-.311-.2.11-.073.427,0,.617a3.679,3.679,0,0,0,2.246,1.764,11.9,11.9,0,0,0,7.275-.72c3.772-1.453,6.708-5.5,5.847-8.889C23.6,1.267,17.888.137,12.489,2.054a27.156,27.156,0,0,0-9.2,5.275C.319,10.113-.157,12.536.038,13.55c.7,3.6,5.651,5.94,7.635,7.674-.1.055-.189.1-.275.153-.995.495-4.773,2.473-5.719,4.56-1.068,2.369.177,4.066.995,4.3a6.1,6.1,0,0,0,6.567-2.662A6.61,6.61,0,0,0,9.828,21.5c-.006-.018-.018-.031-.024-.049.256-.153.519-.305.781-.458.506-.3,1-.574,1.434-.812a9.483,9.483,0,0,0-.513,2.6,5.4,5.4,0,0,0,1.166,3.767,1.281,1.281,0,0,0,.94.305c.842,0,1.221-.7,1.642-1.526.519-1.013.977-2.192.977-2.192s-.574,3.187,1,3.187c.573,0,1.147-.739,1.4-1.117v.006s.012-.024.043-.073c.061-.092.092-.147.092-.147v-.018c.232-.4.739-1.306,1.5-2.808C21.254,20.223,22.2,17.8,22.2,17.8a12.286,12.286,0,0,0,.379,1.575,14.746,14.746,0,0,0,.818,1.831c-.232.317-.372.5-.372.5a.019.019,0,0,0,.006.012c-.183.244-.391.507-.6.763a21.548,21.548,0,0,0-1.831,2.3.624.624,0,0,0,.171.836,1.484,1.484,0,0,0,.958.153,4.234,4.234,0,0,0,1.435-.33,5.018,5.018,0,0,0,1.233-.647,2.756,2.756,0,0,0,1.184-2.43,5.056,5.056,0,0,0-.446-1.722c.067-.1.14-.2.208-.305a32.454,32.454,0,0,0,2.142-3.7,12.286,12.286,0,0,0,.379,1.575,10.769,10.769,0,0,0,.7,1.569,6.711,6.711,0,0,0-2.081,2.692c-.452,1.3-.1,1.886.568,2.021a2.048,2.048,0,0,0,1.044-.214A4.851,4.851,0,0,0,29.4,23.6a2.95,2.95,0,0,0,1.452-2.418,4.542,4.542,0,0,0-.33-1.429,7.452,7.452,0,0,1,3.791-.44c3.4.4,4.065,2.521,3.936,3.407a2.257,2.257,0,0,1-1.081,1.526c-.238.147-.311.2-.293.311.031.159.14.153.342.116a2.652,2.652,0,0,0,1.849-2.363c.1-2.076-1.9-4.359-5.433-4.341ZM7.435,26.8c-1.123,1.227-2.7,1.691-3.375,1.3-.726-.422-.44-2.228.946-3.536A18.089,18.089,0,0,1,7.655,22.59c.165-.1.4-.244.7-.421.049-.031.073-.043.073-.043.055-.037.116-.067.177-.1A4.873,4.873,0,0,1,7.435,26.8Zm8.2-5.58c-.391.958-1.214,3.4-1.715,3.272-.427-.11-.69-1.972-.085-3.8a8.42,8.42,0,0,1,1.337-2.448c.616-.69,1.294-.91,1.452-.635C16.841,17.97,15.882,20.626,15.638,21.224Zm6.777,3.236c-.165.085-.317.14-.391.1-.055-.031.067-.147.067-.147s.849-.91,1.184-1.325c.2-.244.421-.531.665-.849,0,.031.006.061.006.1a2.831,2.831,0,0,1-1.534,2.125Zm5.225-1.19c-.122-.085-.1-.372.305-1.264a4.745,4.745,0,0,1,1.16-1.5,2.209,2.209,0,0,1,.116.659,2.152,2.152,0,0,1-1.581,2.1Z" transform="translate(0 -1.125)" fill="#fff"/>
</svg>
