<svg xmlns="http://www.w3.org/2000/svg" width="31.464" height="31.3" viewBox="0 0 31.464 31.3">
  <path id="Icon_simple-visualstudiocode" data-name="Icon simple-visualstudiocode" d="M30.349,3.4,23.873.287a1.959,1.959,0,0,0-2.235.38L9.236,11.981l-5.4-4.1a1.31,1.31,0,0,0-1.673.075L.429,9.531a1.311,1.311,0,0,0,0,1.939l4.684,4.274L.427,20.017a1.311,1.311,0,0,0,0,1.939l1.734,1.575a1.31,1.31,0,0,0,1.673.075l5.4-4.1,12.4,11.314a1.956,1.956,0,0,0,2.234.38l6.479-3.116a1.966,1.966,0,0,0,1.112-1.772V5.176A1.967,1.967,0,0,0,30.349,3.4ZM23.6,22.886l-9.41-7.142L23.6,8.6V22.886Z" transform="translate(0 -0.093)" fill="#fff"/>
</svg>
