<svg xmlns="http://www.w3.org/2000/svg" width="30.841" height="32.094" viewBox="0 0 30.841 32.094">
  <g id="website-design" transform="translate(-10.001)">
    <path id="Path_97" data-name="Path 97" d="M40.093.749A2.541,2.541,0,0,0,36.678.577L27.7,7.912H12.511A2.513,2.513,0,0,0,10,10.422v15.13a2.513,2.513,0,0,0,2.51,2.51h7.134v2.152H18.064a.94.94,0,0,0,0,1.88H28.125a.94.94,0,1,0,0-1.88H26.544V28.061h7.134a2.513,2.513,0,0,0,2.51-2.51V9.158l4.077-5A2.541,2.541,0,0,0,40.093.749Zm-13,10.927a1.957,1.957,0,0,1,.728-1.435l1.564-1.278,2.5,2.5L30.6,13.03a1.98,1.98,0,0,1-3.509-1.354Zm-.755,6.066a2.69,2.69,0,0,1-2.062.57,8.548,8.548,0,0,0-1.862.116,8.557,8.557,0,0,0,.116-1.863A2.689,2.689,0,0,1,23.1,14.5a2.29,2.29,0,0,1,3.238,3.238ZM24.663,30.213H21.526V28.061h3.138Zm9.644-4.662a.63.63,0,0,1-.63.629H12.511a.63.63,0,0,1-.63-.629v-.8H34.308Zm0-2.683H11.881V10.422a.63.63,0,0,1,.63-.629H25.76a3.841,3.841,0,0,0-.545,2.19,4.242,4.242,0,0,0-.5-.03,4.143,4.143,0,0,0-2.949,1.221,4.444,4.444,0,0,0-1.119,3.467,4.178,4.178,0,0,1-.632,2.853.94.94,0,0,0,1.329,1.329,4.179,4.179,0,0,1,2.853-.632,4.443,4.443,0,0,0,3.467-1.119,4.164,4.164,0,0,0,1.189-3.442c.071,0,.142.006.214.006s.128,0,.192,0a3.867,3.867,0,0,0,2.8-1.412l2.25-2.757V22.869ZM21.362,20.808l-.015.014Zm-1.33-1.33-.014.014ZM38.808,2.973,33.077,10,30.848,7.767l7.019-5.734a.668.668,0,0,1,.94.94Z" transform="translate(0 0)" fill="#fff"/>
  </g>
</svg>
